# xmcd
#
# Track frame offsets: 
#        150
#        13351
#        26293
#        38124
#        52446
#        65196
#        77419
#        92637
#        105135
#        124139
#
# Disc length: 1833 seconds
#
# Revision: 0
# Processed by: cddbd v1.5.2PL0 Copyright (c) Steve Scherf et al.
# Submitted via: ExactAudioCopy v1.1
#
DISCID=7e07270a
DTITLE=The Artistics - What Happened
DYEAR=1969
DGENRE=Soul
TTITLE0=What Happened (To THe Love We Had)
TTITLE1=Yesterday's Girl
TTITLE2=Price Of Love
TTITLE3=When I'm Not Around
TTITLE4=Why Did She Have To Leave Me
TTITLE5=Walking Tall
TTITLE6=I Wish You Love (Que Reste-T-IL De Nos Amours)
TTITLE7=What The World Needs Now Is Love
TTITLE8=With These Hands
TTITLE9=That Lucky Old Sun (Just Rolls Around Heaven All Day)
EXTD=
EXTT0=
EXTT1=
EXTT2=
EXTT3=
EXTT4=
EXTT5=
EXTT6=
EXTT7=
EXTT8=
EXTT9=
PLAYORDER=
